<mxfile host="app.diagrams.net" modified="2024-02-22T21:48:47.362Z" agent="Mozilla/5.0 (X11; Linux x86_64; rv:102.0) Gecko/20100101 Firefox/102.0" etag="aPBcT0BsIAReW9Y85z2L" scale="1" border="0" version="23.1.5" type="device">
  <diagram name="Page-1" id="rcZ7v9nJ8MNP7Q1qWnuh">
    <mxGraphModel dx="1195" dy="685" grid="1" gridSize="10" guides="1" tooltips="1" connect="1" arrows="1" fold="1" page="1" pageScale="1" pageWidth="1169" pageHeight="827" background="#ffffff" math="0" shadow="0">
      <root>
        <mxCell id="0" />
        <mxCell id="1" parent="0" />
        <mxCell id="EPne2tQDu_n1-jHKVN7O-15" value="" style="rounded=0;whiteSpace=wrap;html=1;strokeWidth=3;perimeterSpacing=0;glass=0;strokeColor=#FF9B05;fillColor=none;fontFamily=Roboto;fontSource=https%3A%2F%2Ffonts.googleapis.com%2Fcss%3Ffamily%3DRoboto;fontColor=#FFFFFF;fontSize=11;fontStyle=1;spacing=2;" parent="1" vertex="1">
          <mxGeometry x="724" y="60" width="170" height="360" as="geometry" />
        </mxCell>
        <mxCell id="EPne2tQDu_n1-jHKVN7O-14" value="" style="rounded=0;whiteSpace=wrap;html=1;strokeWidth=3;perimeterSpacing=0;glass=0;strokeColor=#FF9B05;fillColor=none;fontFamily=Roboto;fontSource=https%3A%2F%2Ffonts.googleapis.com%2Fcss%3Ffamily%3DRoboto;fontColor=#FFFFFF;fontSize=11;fontStyle=1;spacing=2;" parent="1" vertex="1">
          <mxGeometry x="370" y="60" width="170" height="360" as="geometry" />
        </mxCell>
        <mxCell id="bQ1WbEOyLSyiqJ54v2sO-3" value="" style="rounded=0;whiteSpace=wrap;html=1;strokeWidth=3;perimeterSpacing=0;glass=0;strokeColor=#1E3F78;fillColor=none;fontFamily=Roboto;fontSource=https%3A%2F%2Ffonts.googleapis.com%2Fcss%3Ffamily%3DRoboto;fontColor=#000000;fontSize=11;fontStyle=1;spacing=2;" parent="1" vertex="1">
          <mxGeometry x="140" y="50" width="770" height="380" as="geometry" />
        </mxCell>
        <mxCell id="bQ1WbEOyLSyiqJ54v2sO-4" value="Namespace" style="text;html=1;align=center;verticalAlign=middle;whiteSpace=wrap;rounded=0;fontFamily=Roboto;fontSource=https%3A%2F%2Ffonts.googleapis.com%2Fcss%3Ffamily%3DRoboto;" parent="1" vertex="1">
          <mxGeometry x="150" y="50" width="60" height="30" as="geometry" />
        </mxCell>
        <mxCell id="bQ1WbEOyLSyiqJ54v2sO-20" value="" style="group" parent="1" vertex="1" connectable="0">
          <mxGeometry x="390" y="80" width="140" height="70" as="geometry" />
        </mxCell>
        <mxCell id="bQ1WbEOyLSyiqJ54v2sO-21" value="" style="rounded=0;whiteSpace=wrap;html=1;strokeWidth=2;perimeterSpacing=0;glass=0;strokeColor=none;fillColor=#265DA6;opacity=70;" parent="bQ1WbEOyLSyiqJ54v2sO-20" vertex="1">
          <mxGeometry width="140" height="70" as="geometry" />
        </mxCell>
        <mxCell id="bQ1WbEOyLSyiqJ54v2sO-22" value="midPoint" style="text;html=1;strokeColor=none;fillColor=none;align=center;verticalAlign=middle;whiteSpace=wrap;rounded=0;glass=0;fontFamily=Roboto;fontSource=https%3A%2F%2Ffonts.googleapis.com%2Fcss%3Ffamily%3DRoboto;fontSize=9;fontColor=#FFFFFF;fontStyle=2" parent="bQ1WbEOyLSyiqJ54v2sO-20" vertex="1">
          <mxGeometry x="10" y="37.33333333333333" width="120" height="18.666666666666664" as="geometry" />
        </mxCell>
        <mxCell id="bQ1WbEOyLSyiqJ54v2sO-23" value="&lt;div align=&quot;center&quot;&gt;StatefulSet&lt;/div&gt;" style="text;html=1;strokeColor=none;fillColor=none;align=center;verticalAlign=middle;whiteSpace=wrap;rounded=0;glass=0;fontFamily=Roboto;fontSource=https%3A%2F%2Ffonts.googleapis.com%2Fcss2%3Ffamily%3DRoboto%3Aital%2Cwght%401%2C300%26display%3Dswapp;fontSize=11;fontColor=#FFFFFF;fontStyle=1" parent="bQ1WbEOyLSyiqJ54v2sO-20" vertex="1">
          <mxGeometry x="10" y="8.4" width="120" height="18.666666666666664" as="geometry" />
        </mxCell>
        <mxCell id="bQ1WbEOyLSyiqJ54v2sO-28" value="" style="group" parent="1" vertex="1" connectable="0">
          <mxGeometry x="390" y="180" width="140" height="70" as="geometry" />
        </mxCell>
        <mxCell id="bQ1WbEOyLSyiqJ54v2sO-29" value="" style="rounded=1;whiteSpace=wrap;html=1;strokeWidth=3;arcSize=50;strokeColor=#1E3F78;fillColor=#265DA6;fontFamily=Roboto;fontSource=https%3A%2F%2Ffonts.googleapis.com%2Fcss%3Ffamily%3DRoboto;fontColor=#FFFFFF;fontSize=11;fontStyle=1;spacing=2;" parent="bQ1WbEOyLSyiqJ54v2sO-28" vertex="1">
          <mxGeometry width="140" height="70" as="geometry" />
        </mxCell>
        <mxCell id="bQ1WbEOyLSyiqJ54v2sO-30" value="midPoint" style="text;html=1;strokeColor=none;fillColor=none;align=center;verticalAlign=middle;whiteSpace=wrap;rounded=0;glass=0;fontFamily=Roboto;fontSource=https%3A%2F%2Ffonts.googleapis.com%2Fcss%3Ffamily%3DRoboto;fontSize=9;fontColor=#FFFFFF;fontStyle=2" parent="bQ1WbEOyLSyiqJ54v2sO-28" vertex="1">
          <mxGeometry x="10" y="40" width="120" height="20" as="geometry" />
        </mxCell>
        <mxCell id="bQ1WbEOyLSyiqJ54v2sO-31" value="Pod" style="text;html=1;strokeColor=none;fillColor=none;align=center;verticalAlign=middle;whiteSpace=wrap;rounded=0;glass=0;fontFamily=Roboto;fontSource=https%3A%2F%2Ffonts.googleapis.com%2Fcss2%3Ffamily%3DRoboto%3Aital%2Cwght%401%2C300%26display%3Dswapp;fontSize=11;fontColor=#FFFFFF;fontStyle=1" parent="bQ1WbEOyLSyiqJ54v2sO-28" vertex="1">
          <mxGeometry x="10" y="13" width="120" height="20" as="geometry" />
        </mxCell>
        <mxCell id="bQ1WbEOyLSyiqJ54v2sO-36" value="" style="group" parent="1" vertex="1" connectable="0">
          <mxGeometry x="744" y="80" width="140" height="70" as="geometry" />
        </mxCell>
        <mxCell id="bQ1WbEOyLSyiqJ54v2sO-37" value="" style="rounded=0;whiteSpace=wrap;html=1;strokeWidth=2;perimeterSpacing=0;glass=0;strokeColor=none;fillColor=#265DA6;opacity=70;" parent="bQ1WbEOyLSyiqJ54v2sO-36" vertex="1">
          <mxGeometry width="140" height="70" as="geometry" />
        </mxCell>
        <mxCell id="bQ1WbEOyLSyiqJ54v2sO-38" value="repository" style="text;html=1;strokeColor=none;fillColor=none;align=center;verticalAlign=middle;whiteSpace=wrap;rounded=0;glass=0;fontFamily=Roboto;fontSource=https%3A%2F%2Ffonts.googleapis.com%2Fcss%3Ffamily%3DRoboto;fontSize=9;fontColor=#FFFFFF;fontStyle=2" parent="bQ1WbEOyLSyiqJ54v2sO-36" vertex="1">
          <mxGeometry x="10" y="37.33333333333333" width="120" height="18.666666666666664" as="geometry" />
        </mxCell>
        <mxCell id="bQ1WbEOyLSyiqJ54v2sO-39" value="&lt;div align=&quot;center&quot;&gt;StatefulSet&lt;/div&gt;" style="text;html=1;strokeColor=none;fillColor=none;align=center;verticalAlign=middle;whiteSpace=wrap;rounded=0;glass=0;fontFamily=Roboto;fontSource=https%3A%2F%2Ffonts.googleapis.com%2Fcss2%3Ffamily%3DRoboto%3Aital%2Cwght%401%2C300%26display%3Dswapp;fontSize=11;fontColor=#FFFFFF;fontStyle=1" parent="bQ1WbEOyLSyiqJ54v2sO-36" vertex="1">
          <mxGeometry x="10" y="8.4" width="120" height="18.666666666666664" as="geometry" />
        </mxCell>
        <mxCell id="bQ1WbEOyLSyiqJ54v2sO-40" value="" style="group" parent="1" vertex="1" connectable="0">
          <mxGeometry x="744" y="180" width="140" height="70" as="geometry" />
        </mxCell>
        <mxCell id="bQ1WbEOyLSyiqJ54v2sO-41" value="" style="rounded=1;whiteSpace=wrap;html=1;strokeWidth=3;arcSize=50;strokeColor=#1E3F78;fillColor=#265DA6;fontFamily=Roboto;fontSource=https%3A%2F%2Ffonts.googleapis.com%2Fcss%3Ffamily%3DRoboto;fontColor=#FFFFFF;fontSize=11;fontStyle=1;spacing=2;" parent="bQ1WbEOyLSyiqJ54v2sO-40" vertex="1">
          <mxGeometry width="140" height="70" as="geometry" />
        </mxCell>
        <mxCell id="bQ1WbEOyLSyiqJ54v2sO-42" value="repository" style="text;html=1;strokeColor=none;fillColor=none;align=center;verticalAlign=middle;whiteSpace=wrap;rounded=0;glass=0;fontFamily=Roboto;fontSource=https%3A%2F%2Ffonts.googleapis.com%2Fcss%3Ffamily%3DRoboto;fontSize=9;fontColor=#FFFFFF;fontStyle=2" parent="bQ1WbEOyLSyiqJ54v2sO-40" vertex="1">
          <mxGeometry x="10" y="40" width="120" height="20" as="geometry" />
        </mxCell>
        <mxCell id="bQ1WbEOyLSyiqJ54v2sO-43" value="Pod" style="text;html=1;strokeColor=none;fillColor=none;align=center;verticalAlign=middle;whiteSpace=wrap;rounded=0;glass=0;fontFamily=Roboto;fontSource=https%3A%2F%2Ffonts.googleapis.com%2Fcss2%3Ffamily%3DRoboto%3Aital%2Cwght%401%2C300%26display%3Dswapp;fontSize=11;fontColor=#FFFFFF;fontStyle=1" parent="bQ1WbEOyLSyiqJ54v2sO-40" vertex="1">
          <mxGeometry x="10" y="13" width="120" height="20" as="geometry" />
        </mxCell>
        <mxCell id="bQ1WbEOyLSyiqJ54v2sO-49" value="" style="group" parent="1" vertex="1" connectable="0">
          <mxGeometry x="744" y="340" width="140" height="70" as="geometry" />
        </mxCell>
        <mxCell id="bQ1WbEOyLSyiqJ54v2sO-46" value="" style="rounded=1;whiteSpace=wrap;html=1;strokeWidth=3;arcSize=25;strokeColor=#1E3F78;fillColor=#265DA6;fontFamily=Roboto;fontSource=https%3A%2F%2Ffonts.googleapis.com%2Fcss%3Ffamily%3DRoboto;fontColor=#FFFFFF;fontSize=11;fontStyle=1;spacing=2;opacity=70;" parent="bQ1WbEOyLSyiqJ54v2sO-49" vertex="1">
          <mxGeometry width="140" height="70" as="geometry" />
        </mxCell>
        <mxCell id="bQ1WbEOyLSyiqJ54v2sO-47" value="repository" style="text;html=1;strokeColor=none;fillColor=none;align=center;verticalAlign=middle;whiteSpace=wrap;rounded=0;glass=0;fontFamily=Roboto;fontSource=https%3A%2F%2Ffonts.googleapis.com%2Fcss%3Ffamily%3DRoboto;fontSize=9;fontColor=#FFFFFF;fontStyle=2" parent="bQ1WbEOyLSyiqJ54v2sO-49" vertex="1">
          <mxGeometry x="10" y="40" width="120" height="20" as="geometry" />
        </mxCell>
        <mxCell id="bQ1WbEOyLSyiqJ54v2sO-48" value="Service" style="text;html=1;strokeColor=none;fillColor=none;align=center;verticalAlign=middle;whiteSpace=wrap;rounded=0;glass=0;fontFamily=Roboto;fontSource=https%3A%2F%2Ffonts.googleapis.com%2Fcss2%3Ffamily%3DRoboto%3Aital%2Cwght%401%2C300%26display%3Dswapp;fontSize=11;fontColor=#FFFFFF;fontStyle=1" parent="bQ1WbEOyLSyiqJ54v2sO-49" vertex="1">
          <mxGeometry x="10" y="13" width="120" height="20" as="geometry" />
        </mxCell>
        <mxCell id="bQ1WbEOyLSyiqJ54v2sO-56" value="" style="group;" parent="1" vertex="1" connectable="0">
          <mxGeometry x="390" y="340" width="140" height="70" as="geometry" />
        </mxCell>
        <mxCell id="bQ1WbEOyLSyiqJ54v2sO-57" value="" style="rounded=1;whiteSpace=wrap;html=1;strokeWidth=3;arcSize=25;strokeColor=#1E3F78;fillColor=#265DA6;fontFamily=Roboto;fontSource=https%3A%2F%2Ffonts.googleapis.com%2Fcss%3Ffamily%3DRoboto;fontColor=#FFFFFF;fontSize=11;fontStyle=1;spacing=2;opacity=70;" parent="bQ1WbEOyLSyiqJ54v2sO-56" vertex="1">
          <mxGeometry width="140" height="70" as="geometry" />
        </mxCell>
        <mxCell id="bQ1WbEOyLSyiqJ54v2sO-58" value="midPoint" style="text;html=1;strokeColor=none;fillColor=none;align=center;verticalAlign=middle;whiteSpace=wrap;rounded=0;glass=0;fontFamily=Roboto;fontSource=https%3A%2F%2Ffonts.googleapis.com%2Fcss%3Ffamily%3DRoboto;fontSize=9;fontColor=#FFFFFF;fontStyle=2" parent="bQ1WbEOyLSyiqJ54v2sO-56" vertex="1">
          <mxGeometry x="10" y="40" width="120" height="20" as="geometry" />
        </mxCell>
        <mxCell id="bQ1WbEOyLSyiqJ54v2sO-59" value="Service" style="text;html=1;strokeColor=none;fillColor=none;align=center;verticalAlign=middle;whiteSpace=wrap;rounded=0;glass=0;fontFamily=Roboto;fontSource=https%3A%2F%2Ffonts.googleapis.com%2Fcss2%3Ffamily%3DRoboto%3Aital%2Cwght%401%2C300%26display%3Dswapp;fontSize=11;fontColor=#FFFFFF;fontStyle=1" parent="bQ1WbEOyLSyiqJ54v2sO-56" vertex="1">
          <mxGeometry x="10" y="13" width="120" height="20" as="geometry" />
        </mxCell>
        <mxCell id="bQ1WbEOyLSyiqJ54v2sO-65" value="" style="group" parent="1" vertex="1" connectable="0">
          <mxGeometry x="190" y="340" width="140" height="70" as="geometry" />
        </mxCell>
        <mxCell id="bQ1WbEOyLSyiqJ54v2sO-62" value="" style="rounded=1;whiteSpace=wrap;html=1;strokeWidth=3;arcSize=12;strokeColor=#1E3F78;fillColor=#265DA6;fontFamily=Roboto;fontSource=https%3A%2F%2Ffonts.googleapis.com%2Fcss%3Ffamily%3DRoboto;fontColor=#FFFFFF;fontSize=11;fontStyle=1;spacing=2;container=0;opacity=70;" parent="bQ1WbEOyLSyiqJ54v2sO-65" vertex="1">
          <mxGeometry width="140" height="70" as="geometry" />
        </mxCell>
        <mxCell id="bQ1WbEOyLSyiqJ54v2sO-63" value="midPoint" style="text;html=1;strokeColor=none;fillColor=none;align=center;verticalAlign=middle;whiteSpace=wrap;rounded=0;glass=0;fontFamily=Roboto;fontSource=https%3A%2F%2Ffonts.googleapis.com%2Fcss%3Ffamily%3DRoboto;fontSize=9;fontColor=#FFFFFF;fontStyle=2;container=0;" parent="bQ1WbEOyLSyiqJ54v2sO-65" vertex="1">
          <mxGeometry x="10" y="40" width="120" height="20" as="geometry" />
        </mxCell>
        <mxCell id="bQ1WbEOyLSyiqJ54v2sO-64" value="Ingress" style="text;html=1;strokeColor=none;fillColor=none;align=center;verticalAlign=middle;whiteSpace=wrap;rounded=0;glass=0;fontFamily=Roboto;fontSource=https%3A%2F%2Ffonts.googleapis.com%2Fcss2%3Ffamily%3DRoboto%3Aital%2Cwght%401%2C300%26display%3Dswapp;fontSize=11;fontColor=#FFFFFF;fontStyle=1;container=0;" parent="bQ1WbEOyLSyiqJ54v2sO-65" vertex="1">
          <mxGeometry x="10" y="13" width="120" height="20" as="geometry" />
        </mxCell>
        <mxCell id="bQ1WbEOyLSyiqJ54v2sO-67" value="" style="shape=actor;whiteSpace=wrap;html=1;" parent="1" vertex="1">
          <mxGeometry x="40" y="345" width="40" height="60" as="geometry" />
        </mxCell>
        <mxCell id="EPne2tQDu_n1-jHKVN7O-1" value="" style="endArrow=block;html=1;strokeWidth=3;strokeColor=#1E3F78;endFill=1;dashed=1;dashPattern=1 1;rounded=0;exitX=0.5;exitY=1;exitDx=0;exitDy=0;entryX=0.5;entryY=0;entryDx=0;entryDy=0;" parent="1" source="bQ1WbEOyLSyiqJ54v2sO-21" target="bQ1WbEOyLSyiqJ54v2sO-29" edge="1">
          <mxGeometry width="50" height="50" relative="1" as="geometry">
            <mxPoint x="280" y="190" as="sourcePoint" />
            <mxPoint x="330" y="140" as="targetPoint" />
          </mxGeometry>
        </mxCell>
        <mxCell id="EPne2tQDu_n1-jHKVN7O-2" value="" style="endArrow=block;html=1;strokeWidth=3;strokeColor=#1E3F78;endFill=1;dashed=1;dashPattern=1 1;rounded=0;exitX=0.5;exitY=1;exitDx=0;exitDy=0;entryX=0.5;entryY=0;entryDx=0;entryDy=0;" parent="1" source="bQ1WbEOyLSyiqJ54v2sO-37" target="bQ1WbEOyLSyiqJ54v2sO-41" edge="1">
          <mxGeometry width="50" height="50" relative="1" as="geometry">
            <mxPoint x="604" y="160" as="sourcePoint" />
            <mxPoint x="604" y="210" as="targetPoint" />
          </mxGeometry>
        </mxCell>
        <mxCell id="EPne2tQDu_n1-jHKVN7O-3" value="" style="endArrow=block;html=1;strokeWidth=3;strokeColor=#1E3F78;endFill=1;rounded=0;entryX=0.5;entryY=1;entryDx=0;entryDy=0;exitX=0.5;exitY=0;exitDx=0;exitDy=0;" parent="1" source="bQ1WbEOyLSyiqJ54v2sO-57" target="bQ1WbEOyLSyiqJ54v2sO-29" edge="1">
          <mxGeometry width="50" height="50" relative="1" as="geometry">
            <mxPoint x="420" y="320" as="sourcePoint" />
            <mxPoint x="470" y="270" as="targetPoint" />
          </mxGeometry>
        </mxCell>
        <mxCell id="EPne2tQDu_n1-jHKVN7O-4" value="" style="endArrow=block;html=1;strokeWidth=3;strokeColor=#1E3F78;endFill=1;rounded=0;entryX=0;entryY=0.5;entryDx=0;entryDy=0;exitX=1;exitY=0.5;exitDx=0;exitDy=0;" parent="1" source="bQ1WbEOyLSyiqJ54v2sO-62" target="bQ1WbEOyLSyiqJ54v2sO-57" edge="1">
          <mxGeometry width="50" height="50" relative="1" as="geometry">
            <mxPoint x="470" y="350" as="sourcePoint" />
            <mxPoint x="470" y="280" as="targetPoint" />
          </mxGeometry>
        </mxCell>
        <mxCell id="EPne2tQDu_n1-jHKVN7O-5" value="" style="edgeStyle=elbowEdgeStyle;elbow=horizontal;endArrow=block;html=1;fontFamily=Roboto;fontSource=https%3A%2F%2Ffonts.googleapis.com%2Fcss2%3Ffamily%3DRoboto%3Aital%2Cwght%401%2C300%26display%3Dswapp;fontSize=9;fontColor=#FFFFFF;strokeColor=#1E3F78;strokeWidth=3;endFill=1;rounded=0;exitX=1;exitY=0.5;exitDx=0;exitDy=0;entryX=0;entryY=0.5;entryDx=0;entryDy=0;" parent="1" source="bQ1WbEOyLSyiqJ54v2sO-29" target="bQ1WbEOyLSyiqJ54v2sO-46" edge="1">
          <mxGeometry width="50" height="50" relative="1" as="geometry">
            <mxPoint x="440" y="340" as="sourcePoint" />
            <mxPoint x="490" y="290" as="targetPoint" />
            <Array as="points">
              <mxPoint x="630" y="300" />
            </Array>
          </mxGeometry>
        </mxCell>
        <mxCell id="EPne2tQDu_n1-jHKVN7O-6" value="" style="endArrow=block;html=1;strokeWidth=3;strokeColor=#1E3F78;endFill=1;rounded=0;entryX=0.5;entryY=1;entryDx=0;entryDy=0;exitX=0.5;exitY=0;exitDx=0;exitDy=0;" parent="1" source="bQ1WbEOyLSyiqJ54v2sO-46" target="bQ1WbEOyLSyiqJ54v2sO-41" edge="1">
          <mxGeometry width="50" height="50" relative="1" as="geometry">
            <mxPoint x="604" y="350" as="sourcePoint" />
            <mxPoint x="604" y="280" as="targetPoint" />
          </mxGeometry>
        </mxCell>
        <mxCell id="EPne2tQDu_n1-jHKVN7O-7" value="" style="endArrow=block;html=1;strokeWidth=3;strokeColor=#1E3F78;endFill=1;rounded=0;entryX=0;entryY=0.5;entryDx=0;entryDy=0;exitX=0.9;exitY=0.5;exitDx=0;exitDy=0;exitPerimeter=0;" parent="1" source="bQ1WbEOyLSyiqJ54v2sO-67" target="bQ1WbEOyLSyiqJ54v2sO-62" edge="1">
          <mxGeometry width="50" height="50" relative="1" as="geometry">
            <mxPoint x="340" y="385" as="sourcePoint" />
            <mxPoint x="400" y="385" as="targetPoint" />
          </mxGeometry>
        </mxCell>
        <mxCell id="EPne2tQDu_n1-jHKVN7O-8" value="" style="endArrow=block;html=1;strokeWidth=3;strokeColor=#1E3F78;endFill=1;rounded=0;" parent="1" edge="1">
          <mxGeometry width="50" height="50" relative="1" as="geometry">
            <mxPoint x="180" y="130" as="sourcePoint" />
            <mxPoint x="230" y="130" as="targetPoint" />
          </mxGeometry>
        </mxCell>
        <mxCell id="EPne2tQDu_n1-jHKVN7O-9" value="" style="endArrow=block;html=1;strokeWidth=3;strokeColor=#1E3F78;endFill=1;rounded=0;dashed=1;dashPattern=1 1;" parent="1" edge="1">
          <mxGeometry width="50" height="50" relative="1" as="geometry">
            <mxPoint x="180" y="180" as="sourcePoint" />
            <mxPoint x="230" y="180" as="targetPoint" />
          </mxGeometry>
        </mxCell>
        <mxCell id="EPne2tQDu_n1-jHKVN7O-10" value="Control" style="text;html=1;align=center;verticalAlign=middle;whiteSpace=wrap;rounded=0;fontFamily=Roboto;" parent="1" vertex="1">
          <mxGeometry x="170" y="180" width="60" height="30" as="geometry" />
        </mxCell>
        <mxCell id="EPne2tQDu_n1-jHKVN7O-12" value="Connect" style="text;html=1;align=center;verticalAlign=middle;whiteSpace=wrap;rounded=0;fontFamily=Roboto;" parent="1" vertex="1">
          <mxGeometry x="172" y="130" width="60" height="30" as="geometry" />
        </mxCell>
        <mxCell id="EPne2tQDu_n1-jHKVN7O-16" value="midPoint" style="text;html=1;align=center;verticalAlign=middle;whiteSpace=wrap;rounded=0;fontFamily=Roboto;fontColor=#FF9B05;" parent="1" vertex="1">
          <mxGeometry x="430" y="20" width="60" height="30" as="geometry" />
        </mxCell>
        <mxCell id="EPne2tQDu_n1-jHKVN7O-17" value="Repository" style="text;html=1;align=center;verticalAlign=middle;whiteSpace=wrap;rounded=0;fontFamily=Roboto;fontColor=#FF9B05;" parent="1" vertex="1">
          <mxGeometry x="784" y="20" width="60" height="30" as="geometry" />
        </mxCell>
        <mxCell id="3fVFlnCKxPe7-jsGOUYY-1" value="&lt;div style=&quot;font-size: 8px;&quot; align=&quot;center&quot;&gt;&lt;font style=&quot;font-size: 8px;&quot;&gt;128M&lt;/font&gt;&lt;/div&gt;" style="shape=cylinder3;whiteSpace=wrap;html=1;boundedLbl=1;backgroundOutline=1;size=10.399999999999977;rounded=0;glass=0;fontFamily=Roboto;fontSource=https%3A%2F%2Ffonts.googleapis.com%2Fcss2%3Ffamily%3DRoboto%3Aital%2Cwght%401%2C300%26display%3Dswapp;fontSize=11;fontColor=#1E3F78;strokeColor=#1E3F78;strokeWidth=3;fillColor=#E6E6E6;align=center;sketch=0;shadow=0;" vertex="1" parent="1">
          <mxGeometry x="410" y="280" width="30" height="40" as="geometry" />
        </mxCell>
        <mxCell id="3fVFlnCKxPe7-jsGOUYY-3" value="" style="endArrow=block;html=1;strokeWidth=3;strokeColor=#1E3F78;endFill=1;rounded=0;exitX=0.25;exitY=1;exitDx=0;exitDy=0;entryX=0.5;entryY=0;entryDx=0;entryDy=0;entryPerimeter=0;" edge="1" parent="1" source="bQ1WbEOyLSyiqJ54v2sO-29" target="3fVFlnCKxPe7-jsGOUYY-1">
          <mxGeometry width="50" height="50" relative="1" as="geometry">
            <mxPoint x="440" y="320" as="sourcePoint" />
            <mxPoint x="490" y="270" as="targetPoint" />
          </mxGeometry>
        </mxCell>
        <mxCell id="3fVFlnCKxPe7-jsGOUYY-4" value="&lt;font style=&quot;font-size: 8px;&quot;&gt;5G&lt;/font&gt;" style="shape=cylinder3;whiteSpace=wrap;html=1;boundedLbl=1;backgroundOutline=1;size=10.399999999999977;rounded=0;glass=0;fontFamily=Roboto;fontSource=https%3A%2F%2Ffonts.googleapis.com%2Fcss2%3Ffamily%3DRoboto%3Aital%2Cwght%401%2C300%26display%3Dswapp;fontSize=11;fontColor=#1E3F78;strokeColor=#1E3F78;strokeWidth=3;fillColor=#E6E6E6;align=center;sketch=0;shadow=0;" vertex="1" parent="1">
          <mxGeometry x="764" y="280" width="30" height="40" as="geometry" />
        </mxCell>
        <mxCell id="3fVFlnCKxPe7-jsGOUYY-5" value="" style="endArrow=block;html=1;strokeWidth=3;strokeColor=#1E3F78;endFill=1;rounded=0;exitX=0.25;exitY=1;exitDx=0;exitDy=0;entryX=0.5;entryY=0;entryDx=0;entryDy=0;entryPerimeter=0;" edge="1" parent="1" target="3fVFlnCKxPe7-jsGOUYY-4" source="bQ1WbEOyLSyiqJ54v2sO-41">
          <mxGeometry width="50" height="50" relative="1" as="geometry">
            <mxPoint x="779" y="250" as="sourcePoint" />
            <mxPoint x="844" y="270" as="targetPoint" />
          </mxGeometry>
        </mxCell>
        <mxCell id="3fVFlnCKxPe7-jsGOUYY-8" value="" style="shape=cylinder3;whiteSpace=wrap;html=1;boundedLbl=1;backgroundOutline=1;size=10.399999999999977;rounded=0;glass=0;fontFamily=Roboto;fontSource=https%3A%2F%2Ffonts.googleapis.com%2Fcss2%3Ffamily%3DRoboto%3Aital%2Cwght%401%2C300%26display%3Dswapp;fontSize=11;fontColor=#1E3F78;strokeColor=#1E3F78;strokeWidth=3;fillColor=#E6E6E6;align=left;sketch=0;shadow=0;" vertex="1" parent="1">
          <mxGeometry x="185" y="210" width="30" height="40" as="geometry" />
        </mxCell>
        <mxCell id="3fVFlnCKxPe7-jsGOUYY-9" value="Persistent Volume Claim" style="text;html=1;align=center;verticalAlign=middle;whiteSpace=wrap;rounded=0;fontFamily=Roboto;" vertex="1" parent="1">
          <mxGeometry x="160" y="250" width="80" height="30" as="geometry" />
        </mxCell>
        <mxCell id="3fVFlnCKxPe7-jsGOUYY-16" value="" style="group;" vertex="1" connectable="0" parent="1">
          <mxGeometry x="560" y="80" width="140" height="70" as="geometry" />
        </mxCell>
        <mxCell id="3fVFlnCKxPe7-jsGOUYY-17" value="" style="rounded=1;whiteSpace=wrap;html=1;strokeWidth=3;arcSize=39;strokeColor=#1E3F78;fillColor=#265DA6;fontFamily=Roboto;fontSource=https%3A%2F%2Ffonts.googleapis.com%2Fcss%3Ffamily%3DRoboto;fontColor=#FFFFFF;fontSize=11;fontStyle=1;spacing=2;opacity=70;" vertex="1" parent="3fVFlnCKxPe7-jsGOUYY-16">
          <mxGeometry width="140" height="70" as="geometry" />
        </mxCell>
        <mxCell id="3fVFlnCKxPe7-jsGOUYY-18" value="midpoint-repository" style="text;html=1;strokeColor=none;fillColor=none;align=center;verticalAlign=middle;whiteSpace=wrap;rounded=0;glass=0;fontFamily=Roboto;fontSource=https%3A%2F%2Ffonts.googleapis.com%2Fcss%3Ffamily%3DRoboto;fontSize=9;fontColor=#FFFFFF;fontStyle=2" vertex="1" parent="3fVFlnCKxPe7-jsGOUYY-16">
          <mxGeometry x="10" y="40" width="120" height="20" as="geometry" />
        </mxCell>
        <mxCell id="3fVFlnCKxPe7-jsGOUYY-19" value="Secret" style="text;html=1;strokeColor=none;fillColor=none;align=center;verticalAlign=middle;whiteSpace=wrap;rounded=0;glass=0;fontFamily=Roboto;fontSource=https%3A%2F%2Ffonts.googleapis.com%2Fcss2%3Ffamily%3DRoboto%3Aital%2Cwght%401%2C300%26display%3Dswapp;fontSize=11;fontColor=#FFFFFF;fontStyle=1" vertex="1" parent="3fVFlnCKxPe7-jsGOUYY-16">
          <mxGeometry x="10" y="13" width="120" height="20" as="geometry" />
        </mxCell>
        <mxCell id="3fVFlnCKxPe7-jsGOUYY-21" value="" style="edgeStyle=elbowEdgeStyle;elbow=vertical;endArrow=block;html=1;fontFamily=Roboto;fontSource=https%3A%2F%2Ffonts.googleapis.com%2Fcss2%3Ffamily%3DRoboto%3Aital%2Cwght%401%2C300%26display%3Dswapp;fontSize=9;fontColor=#FFFFFF;strokeColor=#1E3F78;strokeWidth=3;endFill=1;rounded=0;exitX=0.977;exitY=0.288;exitDx=0;exitDy=0;entryX=0.286;entryY=1;entryDx=0;entryDy=0;entryPerimeter=0;exitPerimeter=0;" edge="1" parent="1" source="bQ1WbEOyLSyiqJ54v2sO-29" target="3fVFlnCKxPe7-jsGOUYY-17">
          <mxGeometry width="50" height="50" relative="1" as="geometry">
            <mxPoint x="570" y="210" as="sourcePoint" />
            <mxPoint x="620" y="160" as="targetPoint" />
            <Array as="points">
              <mxPoint x="560" y="200" />
            </Array>
          </mxGeometry>
        </mxCell>
        <mxCell id="3fVFlnCKxPe7-jsGOUYY-22" value="" style="edgeStyle=elbowEdgeStyle;elbow=vertical;endArrow=block;html=1;fontFamily=Roboto;fontSource=https%3A%2F%2Ffonts.googleapis.com%2Fcss2%3Ffamily%3DRoboto%3Aital%2Cwght%401%2C300%26display%3Dswapp;fontSize=9;fontColor=#FFFFFF;strokeColor=#1E3F78;strokeWidth=3;endFill=1;rounded=0;exitX=0.019;exitY=0.287;exitDx=0;exitDy=0;entryX=0.75;entryY=1;entryDx=0;entryDy=0;exitPerimeter=0;" edge="1" parent="1" source="bQ1WbEOyLSyiqJ54v2sO-41" target="3fVFlnCKxPe7-jsGOUYY-17">
          <mxGeometry width="50" height="50" relative="1" as="geometry">
            <mxPoint x="535" y="207" as="sourcePoint" />
            <mxPoint x="610" y="160" as="targetPoint" />
            <Array as="points">
              <mxPoint x="710" y="200" />
            </Array>
          </mxGeometry>
        </mxCell>
      </root>
    </mxGraphModel>
  </diagram>
</mxfile>
